<svg xmlns="http://www.w3.org/2000/svg" version="1.1" xmlns:xlink="http://www.w3.org/1999/xlink" xmlns:svgjs="http://svgjs.dev/svgjs" width="1440" height="560" preserveAspectRatio="none" viewBox="0 0 1440 560"><g mask="url(&quot;#SvgjsMask1028&quot;)" fill="none"><rect width="1440" height="560" x="0" y="0" fill="url(&quot;#SvgjsLinearGradient1029&quot;)"></rect><g transform="translate(0, 0)" stroke-linecap="round"><path d="M260 211.08 L260 348.92" stroke-width="15" stroke="rgba(3, 4, 94, 1)"></path><path d="M280 159.51 L280 400.49" stroke-width="15" stroke="rgba(0, 180, 216, 1)"></path><path d="M300 121.78 L300 438.22" stroke-width="15" stroke="rgba(0, 180, 216, 1)"></path><path d="M320 248.89 L320 311.11" stroke-width="15" stroke="rgba(144, 224, 239, 1)"></path><path d="M340 132.18 L340 427.82" stroke-width="15" stroke="rgba(202, 240, 248, 1)"></path><path d="M360 147.15 L360 412.86" stroke-width="15" stroke="rgba(0, 180, 216, 1)"></path><path d="M380 203.56 L380 356.44" stroke-width="15" stroke="rgba(0, 180, 216, 1)"></path><path d="M400 259.21 L400 300.79" stroke-width="15" stroke="rgba(202, 240, 248, 1)"></path><path d="M420 197.57 L420 362.43" stroke-width="15" stroke="rgba(0, 180, 216, 1)"></path><path d="M440 215.57 L440 344.43" stroke-width="15" stroke="rgba(202, 240, 248, 1)"></path><path d="M460 167.86 L460 392.14" stroke-width="15" stroke="rgba(202, 240, 248, 1)"></path><path d="M480 202.19 L480 357.81" stroke-width="15" stroke="rgba(144, 224, 239, 1)"></path><path d="M500 105.65 L500 454.36" stroke-width="15" stroke="rgba(144, 224, 239, 1)"></path><path d="M520 105.65 L520 454.36" stroke-width="15" stroke="rgba(202, 240, 248, 1)"></path><path d="M540 230.97 L540 329.03" stroke-width="15" stroke="rgba(3, 4, 94, 1)"></path><path d="M560 220.49 L560 339.51" stroke-width="15" stroke="rgba(144, 224, 239, 1)"></path><path d="M580 111.24 L580 448.76" stroke-width="15" stroke="rgba(0, 180, 216, 1)"></path><path d="M600 234.64 L600 325.36" stroke-width="15" stroke="rgba(202, 240, 248, 1)"></path><path d="M620 131.65 L620 428.35" stroke-width="15" stroke="rgba(3, 4, 94, 1)"></path><path d="M640 248.14 L640 311.86" stroke-width="15" stroke="rgba(202, 240, 248, 1)"></path><path d="M660 167.2 L660 392.8" stroke-width="15" stroke="rgba(0, 180, 216, 1)"></path><path d="M680 252.21 L680 307.79" stroke-width="15" stroke="rgba(0, 180, 216, 1)"></path><path d="M700 257.56 L700 302.44" stroke-width="15" stroke="rgba(144, 224, 239, 1)"></path><path d="M720 189.42 L720 370.58" stroke-width="15" stroke="rgba(202, 240, 248, 1)"></path><path d="M740 154.43 L740 405.57" stroke-width="15" stroke="rgba(3, 4, 94, 1)"></path><path d="M760 180.97 L760 379.02" stroke-width="15" stroke="rgba(0, 180, 216, 1)"></path><path d="M780 217.18 L780 342.82" stroke-width="15" stroke="rgba(3, 4, 94, 1)"></path><path d="M800 238.69 L800 321.31" stroke-width="15" stroke="rgba(3, 4, 94, 1)"></path><path d="M820 125.41 L820 434.59" stroke-width="15" stroke="rgba(0, 180, 216, 1)"></path><path d="M840 149.93 L840 410.07" stroke-width="15" stroke="rgba(3, 4, 94, 1)"></path><path d="M860 159.66 L860 400.34" stroke-width="15" stroke="rgba(144, 224, 239, 1)"></path><path d="M880 174.49 L880 385.51" stroke-width="15" stroke="rgba(0, 180, 216, 1)"></path><path d="M900 228.19 L900 331.81" stroke-width="15" stroke="rgba(202, 240, 248, 1)"></path><path d="M920 106.06 L920 453.94" stroke-width="15" stroke="rgba(3, 4, 94, 1)"></path><path d="M940 240.03 L940 319.97" stroke-width="15" stroke="rgba(202, 240, 248, 1)"></path><path d="M960 143.96 L960 416.04" stroke-width="15" stroke="rgba(202, 240, 248, 1)"></path><path d="M980 164.83 L980 395.17" stroke-width="15" stroke="rgba(3, 4, 94, 1)"></path><path d="M1000 176.83 L1000 383.17" stroke-width="15" stroke="rgba(144, 224, 239, 1)"></path><path d="M1020 136.44 L1020 423.56" stroke-width="15" stroke="rgba(144, 224, 239, 1)"></path><path d="M1040 248.59 L1040 311.4" stroke-width="15" stroke="rgba(3, 4, 94, 1)"></path><path d="M1060 155.45 L1060 404.55" stroke-width="15" stroke="rgba(144, 224, 239, 1)"></path><path d="M1080 203.64 L1080 356.36" stroke-width="15" stroke="rgba(144, 224, 239, 1)"></path><path d="M1100 258.88 L1100 301.12" stroke-width="15" stroke="rgba(144, 224, 239, 1)"></path><path d="M1120 106.38 L1120 453.62" stroke-width="15" stroke="rgba(202, 240, 248, 1)"></path><path d="M1140 254.62 L1140 305.38" stroke-width="15" stroke="rgba(144, 224, 239, 1)"></path><path d="M1160 147.07 L1160 412.93" stroke-width="15" stroke="rgba(202, 240, 248, 1)"></path><path d="M1180 151.81 L1180 408.19" stroke-width="15" stroke="rgba(3, 4, 94, 1)"></path></g></g><defs><mask id="SvgjsMask1028"><rect width="1440" height="560" fill="#ffffff"></rect></mask><linearGradient x1="15.28%" y1="-39.29%" x2="84.72%" y2="139.29%" gradientUnits="userSpaceOnUse" id="SvgjsLinearGradient1029"><stop stop-color="#0e2a47" offset="0"></stop><stop stop-color="rgba(0, 69, 158, 1)" offset="0.51"></stop><stop stop-color="rgba(0, 69, 158, 1)" offset="0.6"></stop><stop stop-color="rgba(0, 69, 158, 1)" offset="1"></stop></linearGradient></defs></svg>